<?xml version="1.0" encoding="utf-8"?>
<!-- Generator: Adobe Illustrator 25.2.0, SVG Export Plug-In . SVG Version: 6.00 Build 0)  -->
<svg version="1.1" id="Layer_1" xmlns="http://www.w3.org/2000/svg" xmlns:xlink="http://www.w3.org/1999/xlink" x="0px" y="0px"
	 viewBox="0 0 387.8 338.6" style="enable-background:new 0 0 387.8 338.6;" xml:space="preserve">
<style type="text/css">
	.st0{fill:#FFAD29;}
	.st1{opacity:0.9;fill:#FFFFFF;enable-background:new    ;}
	.st2{fill:#F5F5F5;}
	.st3{fill:#263238;}
	.st4{opacity:0.2;fill:#FFFFFF;enable-background:new    ;}
	.st5{opacity:0.3;fill:#FFFFFF;enable-background:new    ;}
	.st6{opacity:0.6;fill:#FFFFFF;enable-background:new    ;}
	.st7{fill:#E4897B;}
	.st8{opacity:0.2;enable-background:new    ;}
	.st9{opacity:0.1;enable-background:new    ;}
	.st10{fill:#FFFFFF;}
	.st11{fill:#DE5753;}
	.st12{opacity:0.4;enable-background:new    ;}
	.st13{opacity:0.2;}
	.st14{opacity:0.7;fill:#FFFFFF;enable-background:new    ;}
	.st15{opacity:0.4;fill:#FFFFFF;enable-background:new    ;}
	.st16{opacity:0.5;fill:#FFFFFF;enable-background:new    ;}
	.st17{opacity:0.1;fill:#FFFFFF;enable-background:new    ;}
</style>
<g id="freepik--background-simple--inject-31">
	<path class="st0" d="M252.5,3.6c7.9-2.8,16.3-4,24.7-3.5c41.6,2.6,67.7,39.1,75.4,77.1c11.1,55.2-17,111.8-56.5,149.1
		c-1.3,1.2-2.6,2.4-3.9,3.6c-41.1,36.5-96.1,55.3-150.6,56.8c-34.3,1-75-10.6-97.6-37.8c-23.7-28.5-18.4-92.7,26.7-95.7
		c18.4-1.2,35.5,5.4,53.2,9.1c24.5,5.1,51.2,0.2,71.3-15.1c40-30.3,4-85.7,28.5-122C230.3,15.1,240.9,7.7,252.5,3.6z"/>
	<path class="st1" d="M252.5,3.6c7.9-2.8,16.3-4,24.7-3.5c41.6,2.6,67.7,39.1,75.4,77.1c11.1,55.2-17,111.8-56.5,149.1
		c-1.3,1.2-2.6,2.4-3.9,3.6c-41.1,36.5-96.1,55.3-150.6,56.8c-34.3,1-75-10.6-97.6-37.8c-23.7-28.5-18.4-92.7,26.7-95.7
		c18.4-1.2,35.5,5.4,53.2,9.1c24.5,5.1,51.2,0.2,71.3-15.1c40-30.3,4-85.7,28.5-122C230.3,15.1,240.9,7.7,252.5,3.6z"/>
</g>
<g id="freepik--Shadow--inject-31">
	<ellipse id="freepik--path--inject-31" class="st2" cx="193.9" cy="327.3" rx="193.9" ry="11.3"/>
</g>
<g id="freepik--Chair--inject-31">
	<path class="st3" d="M307,305.4l-28.8-2.8v-40.5h-11.4v40.5l-28.9,2.8c-2.9,0.3-5.1,2.7-5.1,5.6v4.3h79.3V311
		C312.1,308.1,309.9,305.6,307,305.4z"/>
	<path class="st4" d="M307,305.4l-28.8-2.8v-40.5h-11.4v40.5l-28.9,2.8c-2.9,0.3-5.1,2.7-5.1,5.6v4.3h79.3V311
		C312.1,308.1,309.9,305.6,307,305.4z"/>
	<circle class="st3" cx="235.8" cy="320.7" r="7.5"/>
	<circle class="st3" cx="309" cy="320.7" r="7.5"/>
	<path class="st3" d="M264.8,234.7h15.3l0,0v31.9c0,2.3-1.8,4.1-4.1,4.1l0,0H269c-2.3,0-4.1-1.8-4.1-4.1l0,0V234.7L264.8,234.7z"/>
	<path class="st5" d="M264.8,234.7h15.3l0,0v31.9c0,2.3-1.8,4.1-4.1,4.1l0,0H269c-2.3,0-4.1-1.8-4.1-4.1l0,0V234.7L264.8,234.7z"/>
	<path class="st3" d="M299.8,171.4c0,0,2.2,54-12.9,63.3h17.2c0,0,13.3-18.4,9.5-63.3H299.8z"/>
	<path class="st5" d="M299.8,171.4c0,0,2.2,54-12.9,63.3h17.2c0,0,13.3-18.4,9.5-63.3H299.8z"/>
	<path class="st3" d="M309.9,238.8H233l0,0v-6.7c0-2.8,2.2-5,5-5h66.9c2.8,0,5,2.2,5,5V238.8L309.9,238.8z"/>
	<path class="st3" d="M311.1,238.8h-79.3c-1.1,0-2-0.9-2-2V235c0-1.1,0.9-2,2-2h79.3c1.1,0,2,0.9,2,2v1.8
		C313.1,237.9,312.2,238.8,311.1,238.8z"/>
	<path class="st6" d="M311.1,238.8h-79.3c-1.1,0-2-0.9-2-2V235c0-1.1,0.9-2,2-2h79.3c1.1,0,2,0.9,2,2v1.8
		C313.1,237.9,312.2,238.8,311.1,238.8z"/>
	<path class="st3" d="M290.3,142.5h27.5c8.1,0,14.6,6.5,14.6,14.6v10.8c0,8.1-6.5,14.6-14.6,14.6h-27.5c-8.1,0-14.6-6.5-14.6-14.6
		V157C275.8,149,282.3,142.5,290.3,142.5z"/>
</g>
<g id="freepik--Character--inject-31">
	<path class="st7" d="M206.9,98.3l-5.5-14.5c0,0,2.4-2.2,0.7-4.4s-11.7-8.4-13.6-7.3s-5.9,5.2-3.7,7.5s12,6.1,12,6.1l4.9,19
		L206.9,98.3z"/>
	<path class="st0" d="M245.3,125.8c0,0-25-5.1-27.7-6.4s-12.7-30.7-12.7-30.7l-7.7,3.6c0,0,6.2,29.5,12.5,36.6s33.4,13,33.4,13
		L245.3,125.8z"/>
	<path class="st8" d="M243.1,142l-0.5-0.1c-1.4-0.3-5.6-1.3-10.7-2.8c-8.2-2.4-18.6-6-22.2-10.1c-6.3-7-12.5-36.6-12.5-36.6l7.7-3.6
		c0,0,10,29.4,12.8,30.7s27.7,6.4,27.7,6.4L243.1,142z"/>
	<polygon class="st0" points="205,88.2 206.6,91.3 196.6,94.7 197,91 	"/>
	<path class="st8" d="M243.2,141.5c-1.4-0.2-5.7-0.9-10.9-2c3-5.1,11.6-7.7,11.6-7.7L243.2,141.5z"/>
	<path class="st3" d="M280.5,105.5c0,0,1.5,13.8-3.6,17.2s-30.3-0.6-33.2-6.1s7.9-20.7,7.9-20.7L280.5,105.5z"/>
	<polygon class="st7" points="178.5,287.4 185.1,289 188.4,280 191.4,271.7 183.9,268.5 181,278.5 	"/>
	<polygon class="st8" points="181,278.5 188.4,280 191.4,271.7 183.9,268.5 	"/>
	<path class="st0" d="M181.7,273.7l9.1,3.4c0,0,24.3-60.8,29.3-61s55.9,23.2,68.7,10.2s-5.7-44.3-5.7-44.3s-30.7-4.4-33,2.5
		c-0.6,2-1,4.1-1.3,6.2c-0.4,2.1-0.6,3.9-0.6,3.9l0,0c-1-0.2-31.8-8.2-43.9,0C192,203.1,181.7,273.7,181.7,273.7z"/>
	<path class="st6" d="M181.7,273.7l9.1,3.4c0,0,24.3-60.8,29.3-61s55.9,23.2,68.7,10.2s-5.7-44.3-5.7-44.3s-30.7-4.4-33,2.5
		c-0.6,2-1,4.1-1.3,6.2c-0.4,2.1-0.6,3.9-0.6,3.9l0,0c-1-0.2-31.8-8.2-43.9,0C192,203.1,181.7,273.7,181.7,273.7z"/>
	<polygon class="st7" points="234.2,313.4 240.7,311.7 239.4,302.3 238.3,293.7 230.2,294.4 232.3,304.5 	"/>
	<polygon class="st8" points="232.3,304.7 239.5,302.5 238.3,293.8 230.2,294.5 	"/>
	<polygon class="st0" points="194.6,273.7 181.3,269.2 180.7,274.7 190.8,278.2 	"/>
	<path class="st0" d="M266.8,229.4c0,0-2.1,0-34.3-1.5c0,0,4.8,40.2,7.4,70.4l-9.6,1.6c0,0-23-64.5-22.8-74.8s12-13.2,12-13.2
		S242.5,225.2,266.8,229.4z"/>
	<path class="st6" d="M266.8,229.4c0,0-2.1,0-34.3-1.5c0,0,4.8,40.2,7.4,70.4l-9.6,1.6c0,0-23-64.5-22.8-74.8s12-13.2,12-13.2
		S242.5,225.2,266.8,229.4z"/>
	<path class="st9" d="M266.8,229.4c0,0-2.1,0-34.3-1.5c0,0,4.8,40.2,7.4,70.4l-9.6,1.6c0,0-23-64.5-22.8-74.8s12-13.2,12-13.2
		S242.5,225.2,266.8,229.4z"/>
	<polygon class="st0" points="241.3,295.4 228.1,296.9 230.7,302.1 241.4,300.7 	"/>
	<path class="st9" d="M248.2,194.7l17.9,3.7c0,0-9.9-5.5-17.4-7.6C248.5,192.9,248.2,194.7,248.2,194.7z"/>
	<polygon class="st3" points="282.4,177.3 283.1,182.1 250.1,184.6 249.3,179 	"/>
	<polygon class="st8" points="282.4,177.3 283.1,182.1 250.1,184.6 249.3,179 	"/>
	
		<rect x="271.6" y="176.9" transform="matrix(0.9948 -0.1023 0.1023 0.9948 -17.0867 28.805)" class="st0" width="1.6" height="8.4"/>
	
		<rect x="257.1" y="178.7" transform="matrix(0.9979 -6.418384e-02 6.418384e-02 0.9979 -11.1099 17.1106)" class="st10" width="7.2" height="5.5"/>
	
		<rect x="251.3" y="177.7" transform="matrix(0.9948 -0.1023 0.1023 0.9948 -17.2821 26.7389)" class="st0" width="1.6" height="8.4"/>
	
		<rect x="271.6" y="176.9" transform="matrix(0.9948 -0.1023 0.1023 0.9948 -17.0867 28.805)" class="st6" width="1.6" height="8.4"/>
	
		<rect x="251.3" y="177.7" transform="matrix(0.9948 -0.1023 0.1023 0.9948 -17.2821 26.7389)" class="st6" width="1.6" height="8.4"/>
	<path class="st0" d="M244.7,125.4c6.2,1.7,12.6,2.4,19,2.1c10.6-0.5,23.2,4.6,23.2,4.6l-4.5,45.2l-33.1,1.7
		C249.2,178.9,238.1,141.2,244.7,125.4z"/>
	<path class="st3" d="M250,99.9c0,0,1.9-21.9,20.2-14c23,10,4.7,36.7-6.5,31.3C252.4,111.6,250,99.9,250,99.9z"/>
	<path class="st8" d="M255.1,128.7l0.5,12.4l4.1-5.8c0,0-1.5,13.7-0.6,21.2c0,0,0.8-13.4,2.7-21.2l4.4,5.8l6.3-12.3
		C272.5,128.8,262.3,125.1,255.1,128.7z"/>
	<path class="st7" d="M260.8,131.1l9.5-2.7c-5.9-4-2.9-13-2.9-13l-9.4,3.3c0.4,1.3,0.8,2.6,1,4c1,5.9-1.7,6.3-1.7,6.3L260.8,131.1z"
		/>
	<path class="st8" d="M258,118.6c0.4,1.3,0.8,2.6,1,4c4.5-1.8,8.4-7.3,8.4-7.3L258,118.6z"/>
	<path class="st7" d="M264.2,90.5c-8.3-1.8-12,2-14.5,10.5c-3.1,10.6-2.4,18.7,8.5,18.7C272.9,119.7,278,93.6,264.2,90.5z"/>
	<path class="st11" d="M255.1,101.7c-0.9,1.1-2,2.1-3.2,2.9c0.3,0.8,1.1,1.4,2,1.4L255.1,101.7z"/>
	<path class="st3" d="M260.4,102.1c-0.2,0.7,0.1,1.3,0.5,1.4c0.5,0.1,1-0.4,1.1-1s-0.1-1.3-0.5-1.4C261,101,260.5,101.5,260.4,102.1
		z"/>
	<path class="st3" d="M261.7,101.2l-1.3-0.9C260.4,100.2,260.8,101.7,261.7,101.2z"/>
	<path class="st3" d="M252,99.9c-0.2,0.7,0.1,1.3,0.5,1.4s1-0.4,1.1-1s-0.1-1.3-0.5-1.4S252.1,99.2,252,99.9z"/>
	<path class="st3" d="M253.3,99l-1.4-0.9C251.9,98.1,252.4,99.4,253.3,99z"/>
	<path class="st3" d="M265.1,98.8c-0.1,0-0.3-0.1-0.3-0.2c-0.7-1-1.8-1.7-3-1.9c-0.2,0-0.3-0.2-0.3-0.4c0-0.2,0.2-0.3,0.4-0.3
		c1.5,0.1,2.8,1,3.6,2.3c0.1,0.2,0,0.4-0.2,0.5c0,0,0,0,0,0C265.2,98.8,265.1,98.8,265.1,98.8z"/>
	<path class="st3" d="M255.8,95.1c-0.1,0-0.1,0-0.2-0.1c-1-0.5-2.2-0.5-3.1,0c-0.2,0.1-0.4,0-0.5-0.2c0,0,0,0,0,0
		c-0.1-0.2,0-0.4,0.2-0.5c0,0,0,0,0,0c1.2-0.6,2.6-0.5,3.8,0.1c0.2,0.1,0.2,0.3,0.1,0.5c0,0,0,0,0,0C256,95,255.9,95.1,255.8,95.1z"
		/>
	<path class="st3" d="M270.1,106.5c0,0-2.4-7.7-0.6-12.9c0,0-15-10.4-19.5,6.2c0,0,1.7-15.2,16.1-12.4c14.4,2.8,9.7,23.8,0.9,28.4
		C267,115.8,271.6,111.4,270.1,106.5z"/>
	<path class="st7" d="M268.4,108.1c0.6-2,2.7-3.1,4.7-2.5c2.5,0.9,2.6,6.4-4.1,6.3C268,111.8,267.7,110.8,268.4,108.1z"/>
	<path class="st3" d="M252.4,109.2c0.2,1,0.4,2.1,0.4,3.1h0.5c2.5,0.2,3.7-0.5,4.3-1.4c0.3-0.4,0.5-0.9,0.5-1.4c0-0.3,0-0.6,0-0.9
		c-1.6,0.6-3.3,0.8-5,0.6C252.8,109.2,252.4,109.2,252.4,109.2z"/>
	<path class="st10" d="M253.3,109.3l0.1,0.9c2.3,0.2,4,0,4.8-0.6c0-0.3,0-0.6,0-0.9C256.7,109.2,255,109.4,253.3,109.3z"/>
	<path class="st11" d="M253.4,112.3c2.5,0.2,3.7-0.5,4.3-1.4c-0.9-0.1-1.9,0-2.8,0.3C254.3,111.5,253.8,111.8,253.4,112.3z"/>
	<path class="st3" d="M264.2,91.2c0,0,0.3,14.4,9,16.2s-0.8-18.6-0.8-18.6s-12.9-8.4-21.5-2.5c-8.6,5.9-0.9,13.6-0.9,13.6
		S251.8,89.1,264.2,91.2z"/>
	<path class="st3" d="M267.5,104.4c-0.1,0-0.1,0-0.2-0.1c-6.2-4.8-3.1-14.1-3.1-14.2c0-0.1,0.2-0.2,0.3-0.2c0.1,0,0.2,0.2,0.2,0.3
		c0,0.1-3,9,2.9,13.6c0.1,0.1,0.1,0.2,0,0.3c0,0,0,0,0,0C267.6,104.3,267.6,104.4,267.5,104.4z"/>
	<path class="st0" d="M275.7,110.3c-1.1,2.9-3.9,4.6-6.3,3.7s-3.4-4-2.3-6.9c1.1-2.9,3.9-4.6,6.3-3.7S276.8,107.4,275.7,110.3z"/>
	<path class="st12" d="M275.7,110.3c-1.1,2.9-3.9,4.6-6.3,3.7s-3.4-4-2.3-6.9c1.1-2.9,3.9-4.6,6.3-3.7S276.8,107.4,275.7,110.3z"/>
	<path class="st0" d="M272.9,105.5c0,0,3.6-16.1-4.5-20.3c0.9,0.1,1.8,0.3,2.7,0.5c1,0.3,7.5,6.8,4.2,21.3L272.9,105.5z"/>
	<path class="st8" d="M272.9,105.5c0,0,3.6-16.1-4.5-20.3c0.9,0.1,1.8,0.3,2.7,0.5c1,0.3,7.5,6.8,4.2,21.3L272.9,105.5z"/>
	<path class="st0" d="M257.9,114.7l-0.6-0.1l0.2-1c4.4,0.7,8.9-0.3,12.7-2.7l0.6,0.8C266.9,114.2,262.4,115.3,257.9,114.7z"/>
	<g class="st13">
		<path d="M257.9,114.7l-0.6-0.1l0.2-1c4.4,0.7,8.9-0.3,12.7-2.7l0.6,0.8C266.9,114.2,262.4,115.3,257.9,114.7z"/>
	</g>
	<path class="st0" d="M275.3,109.9c-0.7,1.9-2.6,3-4.2,2.4s-2.3-2.6-1.5-4.6s2.6-3,4.2-2.4S276.1,108,275.3,109.9z"/>
	<path class="st0" d="M257,115.1l-0.8-0.1c-0.6-0.1-1-0.6-0.9-1.2c0,0,0,0,0,0l0,0c0.1-0.6,0.6-1,1.2-0.9c0,0,0,0,0,0l0.8,0.1
		c0.6,0.1,1,0.6,0.9,1.2l0,0C258.1,114.7,257.5,115.1,257,115.1z"/>
	<path class="st12" d="M257,115.1l-0.8-0.1c-0.6-0.1-1-0.6-0.9-1.2c0,0,0,0,0,0l0,0c0.1-0.6,0.6-1,1.2-0.9c0,0,0,0,0,0l0.8,0.1
		c0.6,0.1,1,0.6,0.9,1.2l0,0C258.1,114.7,257.5,115.1,257,115.1z"/>
	<polygon class="st0" points="267.8,124.9 261.8,130.7 264.2,137.9 272.5,128.8 	"/>
	<polygon class="st0" points="259.2,126.1 260.1,130.6 257.1,137 255.1,128.7 	"/>
	<path class="st7" d="M266.5,130l3.5-12.6c0,0-1.7-3.1-1.3-3.8c0.4-0.7,2.2-9.1,3.4-10.1c1.3-0.9,6.5,0.6,7.1,1.5
		c0.5,0.9-5,12.4-5,12.4l-2,13.7L266.5,130z"/>
	<path class="st0" d="M286.9,132.1c9.5,9.7-9.5,31.7-20.4,30.8c-10.9-0.9,0.3-40.9,0.3-40.9l7,1.1c0,0-2.5,17.3-1.7,18.6
		S283.7,128.8,286.9,132.1z"/>
	<path class="st8" d="M286.9,132.1c9.5,9.7-9.5,31.7-20.4,30.8c-10.9-0.9,0.3-40.9,0.3-40.9l7,1.1c0,0-2.5,17.3-1.7,18.6
		S283.7,128.8,286.9,132.1z"/>
	<polygon class="st0" points="266.2,120.7 265.2,124 274.9,124.9 274.9,122 	"/>
	<path class="st6" d="M247.5,146.9h3.9c0.4,0,0.8,0.4,0.8,0.8v7.4c0,0.4-0.4,0.8-0.8,0.8h-3.9c-0.4,0-0.8-0.4-0.8-0.8v-7.4
		C246.7,147.2,247.1,146.9,247.5,146.9z"/>
	<rect x="247" y="147.5" class="st8" width="4.5" height="6.1"/>
	<rect x="248.9" y="144.7" class="st3" width="1" height="3.6"/>
	<path class="st0" d="M167.6,300.2c1-0.5,2.1-0.7,3.2-0.8l0,0c0,0,3.8-2.2,7.6-10.9h4.2c1.5,0,2.8,0.9,3.3,2.3
		c0.1,0.2,0.1,0.4,0.1,0.6c-0.1,1-0.2,2-0.3,3c-0.6,3.4-1.4,6.7-2.5,10l-0.7-0.2l1.3-6.3c0.4-2.1-1.8-0.1-2.9,2.1s-2.6,4.4-7.3,3.3
		C168.1,302,165.9,301.2,167.6,300.2z"/>
	<path class="st7" d="M179.1,286.2c0,0-5.3,11.1-8.3,13.2c0,0,4.1,2.4,8.3-3c5.5-7,6.8-5,6.8-5c-0.1-1.2-0.3-2.4-0.7-3.6
		C184.4,285.6,179.1,286.2,179.1,286.2z"/>
	<path class="st0" d="M225.8,326.6c0.9-0.7,1.8-1.2,2.9-1.5l0,0c0,0,3.2-3.1,4.8-12.4l4.1-1c1.4-0.3,2.9,0.3,3.7,1.5
		c0.1,0.2,0.2,0.3,0.3,0.5c0.2,1,0.3,2,0.4,3c0.2,3.4,0.2,6.8,0,10.3h-0.7l-0.2-6.4c-0.1-2.2-1.8,0.4-2.3,2.7s-1.5,4.8-6.3,4.9
		C226.7,328.2,224.4,327.9,225.8,326.6z"/>
	<path class="st7" d="M233.7,310.2c0,0-2.5,12-5,14.8c0,0,4.5,1.4,7.4-4.9c3.7-8.1,5.5-6.5,5.5-6.5c-0.4-1.1-0.9-2.3-1.5-3.3
		C238.7,308.3,233.7,310.2,233.7,310.2z"/>
</g>
<g id="freepik--speech-bubble--inject-31">
	<path class="st0" d="M291.7,68.2h34.9c2.8,0,5.1,2.3,5.1,5.1v14.9c0,2.8-2.3,5.1-5.1,5.1h-34.9c-2.8,0-5.1-2.3-5.1-5.1V73.3
		C286.7,70.5,288.9,68.2,291.7,68.2z"/>
	<polygon class="st0" points="298.7,90.4 288.2,104.7 305.2,91.4 	"/>
	<path class="st10" d="M299.1,80.7c0,0.8-0.7,1.5-1.5,1.5c-0.8,0-1.5-0.7-1.5-1.5s0.7-1.5,1.5-1.5c0,0,0,0,0,0
		C298.5,79.3,299.1,79.9,299.1,80.7L299.1,80.7z"/>
	<path class="st10" d="M306.8,80.7c0,0.8-0.7,1.5-1.5,1.5c-0.8,0-1.5-0.7-1.5-1.5s0.7-1.5,1.5-1.5c0,0,0,0,0,0
		C306.2,79.3,306.8,79.9,306.8,80.7L306.8,80.7z"/>
	<path class="st10" d="M314.5,80.7c0,0.8-0.7,1.5-1.5,1.5c-0.8,0-1.5-0.7-1.5-1.5s0.7-1.5,1.5-1.5c0,0,0,0,0,0
		C313.9,79.3,314.5,79.9,314.5,80.7L314.5,80.7z"/>
	<path class="st10" d="M322.2,80.7c0,0.8-0.7,1.5-1.5,1.5c-0.8,0-1.5-0.7-1.5-1.5s0.7-1.5,1.5-1.5c0,0,0,0,0,0
		C321.5,79.3,322.2,79.9,322.2,80.7L322.2,80.7z"/>
</g>
<g id="freepik--Bird--inject-31">
	<path class="st0" d="M170.7,43l24.9,13.4c0.7,0.4,0.9,1.2,0.6,1.9L188.2,73c-0.4,0.7-1.2,0.9-1.9,0.6l-24.9-13.4
		c-0.7-0.4-0.9-1.2-0.6-1.9l7.9-14.8C169.1,42.9,170,42.6,170.7,43z"/>
	<path class="st14" d="M170.7,43l24.9,13.4c0.7,0.4,0.9,1.2,0.6,1.9L188.2,73c-0.4,0.7-1.2,0.9-1.9,0.6l-24.9-13.4
		c-0.7-0.4-0.9-1.2-0.6-1.9l7.9-14.8C169.1,42.9,170,42.6,170.7,43z"/>
	<path class="st8" d="M168.1,44.7l7.8,14.6c0.6,1.1,1.8,1.8,3.1,1.7l16.2-1.6l-16.5,2.4c-1.5,0.2-2.9-0.6-3.6-1.9L168.1,44.7z"/>
	<path class="st0" d="M149.2,42.1c0.3-5.6,4.4-16.8,9.4-20.2s1.7,1.3,1.7,1.3s4.8-4.6,7.2-4.5s0,3,0,3s5.1-3.2,7.5-3s0,2.9,0,2.9
		s4.2-3,5.9-1.6s-21.9,17-24.5,23.3S149,47.7,149.2,42.1z"/>
	<path class="st15" d="M149.2,42.1c0.3-5.6,4.4-16.8,9.4-20.2s1.7,1.3,1.7,1.3s4.8-4.6,7.2-4.5s0,3,0,3s5.1-3.2,7.5-3s0,2.9,0,2.9
		s4.2-3,5.9-1.6s-21.9,17-24.5,23.3S149,47.7,149.2,42.1z"/>
	<path class="st0" d="M169.5,41.2l3.1,2c0.1,0.1,0.2,0.2,0.1,0.4c-0.1,0.1-0.1,0.1-0.2,0.1l-3.3-0.3l0.3,2.5c0,0.2-0.1,0.3-0.2,0.3
		c-0.1,0-0.2,0-0.3-0.1l-1.9-2.1L169.5,41.2z"/>
	<path class="st5" d="M169.5,41.2l3.1,2c0.1,0.1,0.2,0.2,0.1,0.4c-0.1,0.1-0.1,0.1-0.2,0.1l-3.3-0.3l0.3,2.5c0,0.2-0.1,0.3-0.2,0.3
		c-0.1,0-0.2,0-0.3-0.1l-1.9-2.1L169.5,41.2z"/>
	<path class="st0" d="M125.3,28.7c0,0,4.4-3,10.9-1.1c0,0,1.9,8.7,7.1,11.6c2.9,1.6,9.8,1.4,15.3-0.3c6.6-2.1,9.8-2.1,10.9,0.3
		c1.2,2.5-0.1,5-5.1,6.2s-9,9.9-18.1,10s-13.9-9-11.6-17C132.6,34.3,129.3,31,125.3,28.7z"/>
	<path class="st16" d="M125.3,28.7c0,0,4.4-3,10.9-1.1c0,0,1.9,8.7,7.1,11.6c2.9,1.6,9.8,1.4,15.3-0.3c6.6-2.1,9.8-2.1,10.9,0.3
		c1.2,2.5-0.1,5-5.1,6.2s-9,9.9-18.1,10s-13.9-9-11.6-17C132.6,34.3,129.3,31,125.3,28.7z"/>
	<path class="st3" d="M167.1,40.9c0,0.2-0.2,0.4-0.4,0.4c-0.2,0-0.4-0.2-0.4-0.4c0-0.2,0.2-0.4,0.4-0.4l0,0
		C166.9,40.4,167.1,40.6,167.1,40.9z"/>
	<path class="st0" d="M144.2,48.2c-5.4,1.5-17.3,1-22.1-2.7s0.7-2,0.7-2s-5.9-3.1-6.5-5.5s2.9-0.9,2.9-0.9s-4.6-3.9-5.2-6.2
		s2.8-0.9,2.8-0.9s-4.2-3.1-3.3-5.2s22.9,15.6,29.8,16.1S149.7,46.7,144.2,48.2z"/>
	<path class="st15" d="M144.2,48.2c-5.4,1.5-17.3,1-22.1-2.7s0.7-2,0.7-2s-5.9-3.1-6.5-5.5s2.9-0.9,2.9-0.9s-4.6-3.9-5.2-6.2
		s2.8-0.9,2.8-0.9s-4.2-3.1-3.3-5.2s22.9,15.6,29.8,16.1S149.7,46.7,144.2,48.2z"/>
	<path class="st0" d="M109.1,23.9c0,0-0.1,0-0.1,0c-0.9-0.3-1.9-0.6-2.8-0.9c-0.2-0.1-0.3-0.3-0.2-0.5c0.1-0.2,0.3-0.3,0.5-0.2
		c1,0.3,1.9,0.6,2.9,1c0.2,0.1,0.3,0.3,0.2,0.5C109.4,23.9,109.2,24,109.1,23.9L109.1,23.9z"/>
	<path class="st0" d="M48.6,105.1c-0.2,0-0.4-0.2-0.4-0.4c0-0.2,0.2-0.4,0.4-0.4c2,0,4-0.2,5.9-0.6c0.2,0,0.4,0.1,0.4,0.3
		c0,0.2-0.1,0.4-0.3,0.4c0,0,0,0,0,0C52.7,104.8,50.6,105,48.6,105.1z M42.6,104.7L42.6,104.7c-2-0.2-4-0.5-6-1
		c-0.2,0-0.3-0.2-0.3-0.4c0-0.2,0.2-0.3,0.4-0.3c1.9,0.4,3.9,0.8,5.9,1c0.2,0,0.3,0.2,0.3,0.4C43,104.6,42.8,104.7,42.6,104.7
		L42.6,104.7z M60.4,102.7c-0.1,0-0.3-0.1-0.3-0.2c-0.1-0.2,0-0.4,0.2-0.5c0,0,0,0,0,0c1.8-0.8,3.5-1.8,5-3.1
		c0.2-0.1,0.4-0.1,0.5,0.1c0.1,0.2,0.1,0.4,0,0.5c-1.6,1.3-3.3,2.4-5.2,3.2C60.5,102.7,60.4,102.7,60.4,102.7L60.4,102.7z
		 M30.9,102.1c0,0-0.1,0-0.1,0c-1.9-0.6-3.8-1.4-5.7-2.2c-0.2-0.1-0.2-0.3-0.1-0.5c0.1-0.2,0.3-0.2,0.5-0.2c1.8,0.8,3.7,1.5,5.6,2.2
		c0.2,0.1,0.3,0.3,0.2,0.5C31.2,102,31,102.1,30.9,102.1z M19.9,97.2c-0.1,0-0.1,0-0.2,0c-1.8-1-3.5-2.1-5.2-3.2
		c-0.2-0.1-0.2-0.4-0.1-0.5c0.1-0.2,0.4-0.2,0.5-0.1c1.6,1.1,3.3,2.2,5.1,3.2c0.2,0.1,0.2,0.3,0.1,0.5c0,0,0,0,0,0
		C20.1,97.2,20,97.3,19.9,97.2L19.9,97.2z M69.3,94.9c-0.1,0-0.1,0-0.2,0c-0.2-0.1-0.2-0.3-0.1-0.5c0,0,0,0,0,0
		c0.3-0.5,0.6-1.1,0.9-1.7c0.6-1.2,1-2.5,1.3-3.8c0.1-0.2,0.3-0.3,0.5-0.3c0.2,0.1,0.3,0.3,0.3,0.5c-0.3,1.4-0.8,2.7-1.3,3.9
		c-0.3,0.6-0.6,1.2-0.9,1.8C69.6,94.9,69.4,95,69.3,94.9L69.3,94.9z M10,90.3c-0.1,0-0.2,0-0.2-0.1c-1.5-1.3-2.9-2.8-4.3-4.3
		c-0.1-0.1-0.1-0.4,0-0.5c0.1-0.1,0.4-0.1,0.5,0c1.3,1.5,2.7,2.9,4.2,4.2c0.1,0.1,0.1,0.4,0,0.5C10.2,90.2,10.1,90.3,10,90.3
		L10,90.3z M72.2,83.3c-0.2,0-0.4-0.2-0.4-0.4c0,0,0,0,0,0c0-2-0.2-4-0.6-5.9c0-0.2,0.1-0.4,0.3-0.4c0.2,0,0.4,0.1,0.4,0.3
		c0.4,2,0.5,4,0.6,6.1C72.6,83.2,72.4,83.3,72.2,83.3C72.2,83.3,72.2,83.3,72.2,83.3L72.2,83.3z M70.2,71.5c-0.2,0-0.3-0.1-0.4-0.3
		c-0.5-1.8-1.1-3.6-1.9-5.7c-0.1-0.2,0-0.4,0.2-0.5c0,0,0,0,0,0c0.2-0.1,0.4,0,0.5,0.2c0.8,2.1,1.4,4,1.9,5.7
		c0.1,0.2-0.1,0.4-0.2,0.5L70.2,71.5z M66.1,60.1c-0.1,0-0.3-0.1-0.3-0.2c-0.6-1.6-1.5-3.4-2.4-5.4v-0.1c-0.1-0.2,0.1-0.4,0.3-0.5
		c0.2,0,0.3,0,0.4,0.2v0.1c0.9,2,1.8,3.8,2.4,5.4c0.1,0.2,0,0.4-0.2,0.5L66.1,60.1z M61.1,49.1c-0.2,0-0.3-0.1-0.3-0.2
		c-0.9-2.1-1.6-3.9-2.2-5.6c-0.1-0.2,0-0.4,0.2-0.5c0.2-0.1,0.4,0,0.5,0.2c0.6,1.7,1.3,3.5,2.2,5.6c0.1,0.2,0,0.4-0.2,0.5
		c0,0,0,0,0,0C61.2,49.1,61.1,49.2,61.1,49.1L61.1,49.1z M57.4,37.7c-0.2,0-0.3-0.1-0.4-0.3c-0.2-1.1-0.3-2.2-0.3-3.2
		c0-1,0.1-1.9,0.3-2.9c0.1-0.2,0.3-0.3,0.5-0.2c0.2,0.1,0.3,0.2,0.3,0.4c-0.2,0.9-0.3,1.8-0.2,2.7c0,1,0.1,2.1,0.2,3.1
		C57.8,37.4,57.7,37.6,57.4,37.7L57.4,37.7z M60,26.3c-0.1,0-0.2,0-0.2-0.1c-0.1-0.1-0.1-0.4,0-0.5c1.3-1.6,3-2.9,4.8-3.8
		c0.2-0.1,0.4,0,0.5,0.2c0.1,0.2,0,0.4-0.2,0.5c-1.7,0.9-3.3,2.1-4.6,3.6C60.3,26.3,60.2,26.4,60,26.3L60,26.3z M100.3,21.4
		L100.3,21.4c-2-0.4-4-0.7-6-1c-0.2,0-0.3-0.2-0.3-0.4c0,0,0,0,0,0c0-0.2,0.2-0.3,0.4-0.3c0,0,0,0,0,0c2,0.3,4,0.6,6,1
		c0.2,0,0.3,0.3,0.3,0.5C100.7,21.3,100.5,21.4,100.3,21.4L100.3,21.4z M70.3,20.6c-0.2,0-0.4-0.1-0.4-0.3c0-0.2,0.1-0.4,0.3-0.4
		c2-0.4,4-0.7,6-0.9c0.2,0,0.4,0.1,0.4,0.3c0,0.2-0.1,0.4-0.3,0.4c0,0,0,0,0,0C74.3,19.8,72.4,20.1,70.3,20.6L70.3,20.6z M88.3,19.9
		L88.3,19.9c-1.7-0.1-3.8-0.2-6-0.3c-0.2,0-0.4-0.2-0.4-0.4c0-0.2,0.2-0.4,0.4-0.4c0,0,0,0,0,0c2.2,0.1,4.3,0.2,6,0.3
		c0.2,0,0.4,0.2,0.4,0.4c0,0,0,0,0,0C88.7,19.7,88.6,19.9,88.3,19.9L88.3,19.9z"/>
	<path class="st0" d="M2.2,81.1c-0.1,0-0.3-0.1-0.3-0.2c-0.5-0.9-1-1.8-1.3-2.7c-0.1-0.2,0-0.4,0.2-0.5c0,0,0,0,0,0
		c0.2-0.1,0.4,0,0.5,0.2c0.4,0.9,0.8,1.8,1.3,2.6c0.1,0.2,0.1,0.4-0.1,0.5C2.4,81,2.3,81.1,2.2,81.1L2.2,81.1z"/>
</g>
<g id="freepik--Desk--inject-31">
	<rect x="85.7" y="160.1" class="st10" width="38" height="7.8"/>
	<rect x="85.7" y="160.1" class="st9" width="38" height="7.8"/>
	<rect x="85.7" y="160.1" class="st9" width="16" height="7.8"/>
	<polygon class="st9" points="85.7,161.2 119.5,161.2 85.7,162.2 	"/>
	<polygon class="st9" points="123.7,162.6 94.4,163.3 123.7,163.3 	"/>
	<polygon class="st9" points="87.3,164.7 101.7,164.2 123,164.7 101.7,165.1 	"/>
	<polygon class="st9" points="85.7,166.4 110.8,166.4 85.7,167 	"/>
	<polygon class="st9" points="123.6,167 106.9,167.3 123.7,167.3 	"/>
	<rect x="80.5" y="152.3" class="st10" width="38" height="7.8"/>
	<rect x="80.5" y="152.3" class="st9" width="38" height="7.8"/>
	<rect x="80.5" y="152.3" class="st9" width="16" height="7.8"/>
	<polygon class="st9" points="80.5,153.4 114.2,153.4 80.5,154.4 	"/>
	<polygon class="st9" points="118.4,154.8 89.1,155.5 118.4,155.5 	"/>
	<polygon class="st9" points="82,157 96.4,156.4 117.7,157 96.4,157.3 	"/>
	<polygon class="st9" points="80.5,158.6 105.5,158.6 80.5,159.2 	"/>
	<polygon class="st9" points="118.4,159.2 101.6,159.5 118.4,159.5 	"/>
	<rect x="84.8" y="144.5" class="st10" width="38" height="7.8"/>
	<rect x="84.8" y="144.5" class="st9" width="38" height="7.8"/>
	<rect x="84.8" y="144.5" class="st9" width="16" height="7.8"/>
	<polygon class="st9" points="84.8,145.6 118.6,145.6 84.8,146.6 	"/>
	<polygon class="st9" points="122.8,147 93.5,147.7 122.8,147.7 	"/>
	<polygon class="st9" points="86.3,149.2 100.8,148.6 122,149.2 100.8,149.5 	"/>
	<polygon class="st9" points="84.8,150.8 109.8,150.8 84.8,151.4 	"/>
	<polygon class="st9" points="122.7,151.4 106,151.7 122.8,151.7 	"/>
	<polygon class="st3" points="148,167.7 149,164 189.6,164 208.2,165.9 209,167.7 	"/>
	<polygon class="st12" points="189.6,164 189.6,167.7 148,167.7 149,164 	"/>
	<path class="st3" d="M181.4,146.1c0.2,1.7-1,3.3-2.8,3.5c-0.1,0-0.3,0-0.4,0h-62.1c-2,0-3.7-1.6-3.9-3.6l-3.7-39.8
		c0-0.4,0-0.8,0.1-1.2c0.4-1.4,1.7-2.4,3.1-2.4h62.2c2,0,3.7,1.6,3.9,3.6L181.4,146.1z"/>
	<path class="st12" d="M178,149.7h-61.9c-2,0-3.7-1.6-3.9-3.6l-3.7-39.8c0-0.4,0-0.8,0.1-1.2h61.9c2,0,3.7,1.6,3.9,3.6l3.7,39.8
		C178.1,148.9,178.1,149.3,178,149.7z"/>
	<polygon class="st3" points="135.3,125.3 148.2,125.3 144.7,162.1 165.1,165.2 165.1,167.7 122.3,167.7 122.3,165.2 131,162.1 	"/>
	<polygon class="st17" points="148.2,125.3 138.6,167.1 131,166.9 135.3,125.3 	"/>
	<polygon class="st3" points="148.1,328.1 142,328.1 131,174.9 139.1,174.9 	"/>
	<polygon class="st15" points="148.1,328.1 142,328.1 131.5,182.5 131,175.1 139.1,175.1 139.5,182.5 	"/>
	<polygon class="st8" points="139.5,182.1 131.5,182.1 131,175.1 139.1,175.1 	"/>
	<polygon class="st3" points="193.1,328.1 186.9,328.1 185.9,174.9 194.1,174.9 	"/>
	<polygon class="st16" points="194.1,175.1 193.9,199.9 193.1,328.1 186.9,328.1 186.1,199.9 185.9,175.1 	"/>
	<polygon class="st8" points="194.1,175.1 193.9,200.1 186.1,200.1 185.9,175.1 	"/>
	<polygon class="st3" points="258.1,328.1 252,328.1 241,174.9 249.1,174.9 	"/>
	<polygon class="st16" points="258.1,328.1 252,328.1 241.5,182.5 241,175.1 249.1,175.1 249.5,182.5 	"/>
	<polygon class="st8" points="249.5,182.1 241.5,182.1 241,175.1 249.1,175.1 	"/>
	<polygon class="st3" points="78,328.1 71.9,328.1 80.9,174.9 89,174.9 	"/>
	<polygon class="st16" points="89,175.1 88.5,182.5 78,328.1 71.9,328.1 80.5,182.5 80.9,175.1 	"/>
	<polygon class="st8" points="80.9,175.1 89,175.1 88.5,182.1 80.5,182.1 	"/>
	<path class="st0" d="M74.5,171.1h181.1l0,0v5.5c0,1.2-1,2.2-2.2,2.2l0,0H76.6c-1.2,0-2.2-1-2.2-2.2l0,0L74.5,171.1L74.5,171.1z"/>
	<path class="st6" d="M74.5,171.1h181.1l0,0v5.5c0,1.2-1,2.2-2.2,2.2l0,0H76.6c-1.2,0-2.2-1-2.2-2.2l0,0L74.5,171.1L74.5,171.1z"/>
	<rect x="74.5" y="171" class="st8" width="181.1" height="3.8"/>
	<path class="st0" d="M259.3,172.1H70.7c-1.2,0-2.2-1-2.2-2.2l0,0l0,0c0-1.2,1-2.2,2.2-2.2h188.7c1.2,0,2.2,1,2.2,2.2l0,0
		C261.5,171.1,260.5,172.1,259.3,172.1L259.3,172.1z"/>
	<path class="st6" d="M259.3,172.1H70.7c-1.2,0-2.2-1-2.2-2.2l0,0l0,0c0-1.2,1-2.2,2.2-2.2h188.7c1.2,0,2.2,1,2.2,2.2l0,0
		C261.5,171.1,260.5,172.1,259.3,172.1L259.3,172.1z"/>
	<path class="st0" d="M214.7,161.1l2.3-3.5c0.5-0.7,1.2-1.1,2.1-1.1h2.9c0.2,0,0.5,0,0.7,0.1l10.5,3.2c0.6,0.2,1.1,0.6,1.4,1.1
		l1.5,2.5L214.7,161.1z"/>
	<path class="st8" d="M236.2,163.4l-15.3-1.7l-6.2-0.7l2.3-3.5c0.5-0.7,1.2-1.1,2.1-1.1h2.9c0.2,0,0.5,0,0.7,0.1l0.2,0.1l10.2,3.1
		c0.6,0.2,1.1,0.6,1.4,1.1L236.2,163.4z"/>
	<path class="st8" d="M236.2,163.4l-15.3-1.7l2.1-5.1l10.2,3.1c0.6,0.2,1.1,0.6,1.4,1.1L236.2,163.4z"/>
	<path class="st0" d="M243.4,167.4v0.3H211l1.2-4.7c0.5-1.8,2.1-3,3.9-3h14.4c0.5,0,1,0.1,1.4,0.2l1.8,0.7l7.1,2.7
		C242.4,164.2,243.5,165.7,243.4,167.4z"/>
	<path class="st8" d="M243.4,167.4v0.3h-13.3l0.7-5.1c0.2-1.2,1.3-2,2.4-1.8c0.1,0,0.3,0.1,0.4,0.1l7.1,2.7
		C242.4,164.2,243.4,165.7,243.4,167.4z"/>
	<path class="st3" d="M232.2,164.3l4.2-12.7c0.2-0.5,0.7-0.8,1.2-0.6c0.1,0,0.1,0,0.2,0.1l0,0c0.4,0.2,0.6,0.7,0.5,1.1l-3.6,13.6
		C234.7,165.7,232.3,166.6,232.2,164.3z"/>
	<polygon class="st8" points="214.7,166.7 212.8,166.7 213.2,164.8 215.1,164.8 	"/>
	<polygon class="st8" points="217.5,166.6 215.6,166.6 216,164.7 217.9,164.7 	"/>
</g>
</svg>
