<?xml version="1.0" ?><svg contentScriptType="text/ecmascript" contentStyleType="text/css" enable-background="new 0 0 2048 2048" height="2048px" fill="#ffad29" id="Layer_1" preserveAspectRatio="xMidYMid meet" version="1.1" viewBox="40.66699981689453 0 1710.666015625 2048" width="1710.666015625px" xml:space="preserve" xmlns="http://www.w3.org/2000/svg" xmlns:xlink="http://www.w3.org/1999/xlink" zoomAndPan="magnify"><path d="M1472,1024c0-78-15.167-152.5-45.5-223.5s-71.333-132.333-123-184c-51.667-51.667-113-92.667-184-123S974,448,896,448  s-152.5,15.167-223.5,45.5s-132.333,71.333-184,123c-51.667,51.667-92.667,113-123,184S320,946,320,1024s15.167,152.5,45.5,223.5  s71.333,132.333,123,184s113,92.667,184,123S818,1600,896,1600s152.5-15.167,223.5-45.5s132.333-71.333,184-123s92.667-113,123-184  S1472,1102,1472,1024z M1748,1301c-2.667,10-9.333,16.667-20,20l-292,96v306c0,10.667-4.333,19.333-13,26c-10,6.667-19.667,8-29,4  l-292-94l-180,248c-6.667,8.667-15.333,13-26,13s-19.333-4.333-26-13l-180-248l-292,94c-9.333,4-19,2.667-29-4  c-8.667-6.667-13-15.333-13-26v-306l-292-96c-10.667-3.333-17.333-10-20-20c-3.333-11.333-2-21,4-29l180-248L48,776  c-6-8.667-7.333-18.333-4-29c2.667-10,9.333-16.667,20-20l292-96V325c0-10.667,4.333-19.333,13-26c10-6.667,19.667-8,29-4l292,94  l180-248c6-8,14.667-12,26-12s20,4,26,12l180,248l292-94c9.333-4,19-2.667,29,4c8.667,6.667,13,15.333,13,26v306l292,96  c10.667,3.333,17.333,10,20,20c3.333,10.667,2,20.333-4,29l-180,248l180,248C1750,1280,1751.333,1289.667,1748,1301z"/></svg>